<?xml version="1.0" encoding="utf-8"?>
<!-- Generator: Adobe Illustrator 16.0.0, SVG Export Plug-In . SVG Version: 6.00 Build 0)  -->
<!DOCTYPE svg PUBLIC "-//W3C//DTD SVG 1.1//EN" "http://www.w3.org/Graphics/SVG/1.1/DTD/svg11.dtd">
<svg version="1.1" id="Layer_1" xmlns="http://www.w3.org/2000/svg" xmlns:xlink="http://www.w3.org/1999/xlink" x="0px" y="0px"
	 width="876.55px" height="153.294px" viewBox="57.218 77.967 876.55 153.294"
	 enable-background="new 57.218 77.967 876.55 153.294" xml:space="preserve">
<g>
	<g>
		<path fill="#1A1A1A" d="M57.218,207.929l18.624-22.308c12.894,10.641,26.402,17.396,42.776,17.396
			c12.894,0,20.67-5.117,20.67-13.51v-0.41c0-7.981-4.912-12.072-28.857-18.216c-28.857-7.367-47.482-15.352-47.482-43.801v-0.406
			c0-25.993,20.875-43.187,50.143-43.187c20.877,0,38.683,6.55,53.215,18.216l-16.374,23.742
			c-12.689-8.802-25.175-14.121-37.25-14.121c-12.076,0-18.42,5.522-18.42,12.484v0.406c0,9.414,6.14,12.485,30.905,18.828
			c29.062,7.575,45.436,18.014,45.436,42.981v0.412c0,28.446-21.693,44.414-52.6,44.414C96.31,230.854,74.41,223.279,57.218,207.929
			z"/>
		<path fill="#1A1A1A" d="M180.499,174.567v-0.408c0-31.518,25.376-57.104,59.556-57.104c33.98,0,59.151,25.176,59.151,56.692v0.41
			c0,31.518-25.377,57.102-59.557,57.102C205.672,231.26,180.499,206.09,180.499,174.567z M268.504,174.567v-0.408
			c0-16.168-11.666-30.293-28.856-30.293c-17.81,0-28.449,13.717-28.449,29.883v0.41c0,16.17,11.666,30.291,28.855,30.291
			C257.864,204.45,268.504,190.738,268.504,174.567z"/>
		<path fill="#1A1A1A" d="M492.184,104.164c5.323,0,9.937,1.023,13.937,2.658V81.034c-6-1.842-12.157-3.067-21.984-3.067
			c-11.054,0-19.463,2.864-25.192,8.596c-5.73,5.729-8.823,14.53-8.823,26.606v7.029h-36v-29h-30v29h-37v-4.164
			c0-8.186,3.905-11.87,11.07-11.87c5.315,0,9.93,1.023,13.93,2.658V81.034c-6-1.842-12.394-3.067-22.214-3.067
			c-11.053,0-19.353,2.864-25.082,8.596c-5.729,5.729-8.704,14.53-8.704,26.606v7.029h-13v26h13v83h31v-83h37v51.496
			c0,25.382,13.148,32.953,32.185,32.953c10.44,0,17.815-2.459,24.815-6.342v-24.973c-6,2.454-10.425,3.892-16.155,3.892
			c-6.962,0-10.845-3.481-10.845-10.646v-46.38h36v83h31v-83h25v-26h-25v-4.164C481.119,107.849,485.021,104.164,492.184,104.164z"
			/>
		<path fill="#1A1A1A" d="M503.292,197.287v-0.409c0-23.948,18.215-34.999,44.207-34.999c11.053,0,19.035,1.844,26.817,4.501v-1.84
			c0-12.895-7.989-20.057-23.54-20.057c-11.873,0-20.263,2.248-30.295,5.934l-7.775-23.74c12.079-5.322,23.945-8.801,42.574-8.801
			c16.982,0,29.262,4.504,37.044,12.279c8.188,8.188,11.865,20.262,11.865,34.999v63.651h-30.081v-11.869
			c-7.576,8.388-18.01,13.918-33.16,13.918C520.282,230.854,503.292,218.98,503.292,197.287z M574.723,190.126v-5.531
			c-5.323-2.453-12.278-4.09-19.854-4.09c-13.299,0-21.487,5.319-21.487,15.146v0.409c0,8.392,6.956,13.302,16.983,13.302
			C564.895,209.36,574.723,201.379,574.723,190.126z"/>
		<path fill="#1A1A1A" d="M615.451,174.567v-0.408c0-31.315,23.952-57.104,57.512-57.104c20.675,0,33.566,6.959,43.801,18.423
			l-19.034,20.464c-6.956-7.365-13.919-12.076-24.966-12.076c-15.558,0-26.609,13.717-26.609,29.883v0.41
			c0,16.782,10.847,30.291,27.836,30.291c10.438,0,17.603-4.505,25.171-11.667l18.216,18.423
			c-10.64,11.667-22.919,20.055-44.818,20.055C639.604,231.26,615.451,205.883,615.451,174.567z"/>
		<path fill="#1A1A1A" d="M719.016,174.567v-0.408c0-31.315,22.312-57.104,54.24-57.104c36.638,0,53.414,28.449,53.414,59.558
			c0,2.458-0.2,5.323-0.405,8.188h-76.342c3.072,14.12,12.894,21.489,26.812,21.489c10.439,0,18.009-3.272,26.609-11.256
			l17.803,15.756c-10.232,12.692-24.972,20.469-44.818,20.469C743.374,231.26,719.016,208.134,719.016,174.567z M796.382,165.36
			c-1.839-13.918-10.026-23.332-23.126-23.332c-12.893,0-21.287,9.207-23.739,23.332H796.382z"/>
	</g>
	<g opacity="0.5">
		<path fill="#1A1A1A" d="M844.564,118.007h21.153l23.448,36.453l23.448-36.453h21.153v86.203H914.27v-56.277l-25.104,36.821h-0.51
			l-24.851-36.452v55.908h-19.243v-86.203H844.564z"/>
	</g>
	<rect x="844.564" y="214.649" opacity="0.5" fill="#1A1A1A" enable-background="new    " width="89.203" height="16.61"/>
</g>
</svg>
